<svg width="120" height="43" viewBox="0 0 120 43" fill="none" xmlns="http://www.w3.org/2000/svg">
<path fill-rule="evenodd" clip-rule="evenodd" d="M120 0V42.0438H0V0H120ZM117.736 2.52263H2.26316V39.5212H117.737V2.52263H117.736ZM15.6495 14.595C16.3723 14.5925 17.091 14.7166 17.7789 14.9629C18.4412 15.1949 19.0553 15.5709 19.5853 16.0689L18.4147 18.358C18.0063 17.9889 17.5526 17.6861 17.0674 17.4587C16.6568 17.2621 16.2156 17.1562 15.7684 17.1469C15.4526 17.1469 15.1937 17.1912 14.9958 17.2788C14.8226 17.3478 14.6702 17.4692 14.5558 17.6292C14.4575 17.7802 14.4065 17.9627 14.4105 18.1489C14.4105 18.3253 14.4526 18.4864 14.5379 18.6312C14.6221 18.7761 14.7526 18.915 14.9274 19.047C15.1042 19.1801 15.3611 19.3401 15.7011 19.5293L17.2442 20.0969C17.9232 20.3994 18.4568 20.7241 18.8474 21.0709C19.2368 21.4166 19.5179 21.7985 19.6874 22.2143C19.8568 22.6301 19.9421 23.1019 19.9421 23.6321C19.9421 24.4018 19.7895 25.0721 19.4842 25.6455C19.1789 26.219 18.7347 26.6639 18.1516 26.9793C17.5695 27.2946 16.8821 27.4511 16.0905 27.4511C15.1951 27.4532 14.3069 27.2739 13.4695 26.922C12.6666 26.5968 11.9309 26.0955 11.3063 25.4482L12.5105 23.235C13.0418 23.7489 13.6466 24.161 14.3 24.4543C14.94 24.7381 15.5253 24.8806 16.0568 24.8806C16.4411 24.8806 16.7358 24.7918 16.9389 24.6155C17.1421 24.4391 17.2442 24.1869 17.2442 23.8587C17.2473 23.6839 17.2092 23.5111 17.1337 23.3577C17.06 23.214 16.9126 23.0528 16.6926 22.8753C16.4121 22.6618 16.1139 22.4784 15.8021 22.3276L15.7179 22.2704L14.4789 21.7413C13.5284 21.3384 12.8337 20.8596 12.3926 20.3048C11.9505 19.7501 11.7305 19.0563 11.7305 18.2248C11.7305 17.5323 11.8832 16.9109 12.1884 16.362C12.4937 15.8131 12.9432 15.3822 13.5368 15.0669C14.1316 14.7515 14.8347 14.595 15.6495 14.595ZM25.4558 14.8777V22.6301C25.4558 23.3985 25.6116 23.9848 25.9232 24.3889C26.2337 24.7918 26.6832 24.9939 27.2716 24.9939C27.8589 24.9939 28.3116 24.7918 28.6295 24.3889C28.9453 23.9848 29.1032 23.3553 29.1032 22.4969V14.8777H31.7337V22.2517C31.7337 23.3985 31.5495 24.3597 31.1821 25.1363C30.8361 25.8874 30.2834 26.4965 29.6042 26.8753C28.92 27.2596 28.0968 27.4511 27.1358 27.4511C26.22 27.4511 25.4305 27.2631 24.7695 26.8847C24.1199 26.5201 23.5932 25.9334 23.2674 25.2111C22.9284 24.4742 22.7589 23.5504 22.7589 22.4409V14.8777H25.4558ZM84.7716 14.8777V22.6301C84.7716 23.3985 84.9263 23.9848 85.2379 24.3889C85.5484 24.7918 85.9989 24.9939 86.5863 24.9939C87.1747 24.9939 87.6274 24.7918 87.9442 24.3889C88.26 23.9848 88.4179 23.3553 88.4179 22.4969V14.8777H91.0495V22.2517C91.0495 23.3985 90.8642 24.3597 90.4968 25.1363C90.1509 25.8874 89.5981 26.4965 88.9189 26.8753C88.2347 27.2596 87.4116 27.4511 86.4505 27.4511C85.5347 27.4511 84.7453 27.2631 84.0842 26.8847C83.4345 26.5203 82.9078 25.9335 82.5821 25.2111C82.2432 24.4742 82.0737 23.5504 82.0737 22.4409V14.8777H84.7716ZM39.3516 14.8777C40.2674 14.8777 41.0537 15.0482 41.7095 15.388C42.3663 15.729 42.8695 16.2207 43.22 16.8631C43.5705 17.5054 43.7463 18.282 43.7463 19.1895C43.7463 20.1098 43.5705 20.8969 43.22 21.5521C42.8631 22.2139 42.3375 22.7434 41.7095 23.0739C41.0537 23.4336 40.2737 23.6134 39.3684 23.6134H37.8589V27.1673H35.1779V14.8765L39.3516 14.8777ZM53.7558 14.8777V17.4307H49.1411V19.7559H52.84V22.1571H49.1411V24.6155H54.0958V27.1673H46.4779V14.8765H53.7558V14.8777ZM61.8663 14.8777C63.1779 14.8777 64.1789 15.1685 64.8695 15.7477C65.5589 16.3282 65.9042 17.1469 65.9042 18.2061C65.9042 19.1264 65.6305 19.854 65.0811 20.3901C64.5326 20.9261 63.7832 21.1936 62.8337 21.1936H62.3916V21.3816L62.7653 21.4015C63.2853 21.4272 63.7042 21.5089 64.021 21.6467C64.3368 21.7869 64.5863 21.9901 64.7674 22.261C64.9484 22.5331 65.1063 22.901 65.2421 23.3682L66.3284 27.1673H63.5116L62.5789 23.6695C62.4768 23.3168 62.3326 23.0715 62.1474 22.9337C61.9589 22.7936 61.6568 22.7247 61.2379 22.7247H59.8642V27.1673H57.201V14.8765L61.8663 14.8777ZM71.8937 14.8777V19.6999H75.9821V14.8777H78.6979V27.1685H75.9821V22.233H71.8947V27.1685H69.1789V14.8765H71.8947L71.8937 14.8777ZM97.2074 14.8777V27.1673H94.4926V14.8765H97.2074V14.8777ZM108.694 14.8777V17.4307H105.657V27.1673H102.994V17.4307H99.9558V14.8777H108.694ZM39.2663 17.4307H37.8589V21.2496H39.2505C39.8042 21.2496 40.2305 21.0791 40.5305 20.7393C40.8305 20.3994 40.98 19.9077 40.98 19.2642C40.98 18.685 40.8305 18.2342 40.5305 17.913C40.2305 17.5918 39.8095 17.4307 39.2674 17.4307H39.2663ZM61.4926 17.2987H59.8642V20.5314H61.3737C61.9505 20.5314 62.3979 20.3831 62.7147 20.0876C63.0305 19.7909 63.1884 19.3775 63.1884 18.8496C63.1884 18.3194 63.0516 17.9293 62.7737 17.6759C62.4968 17.4236 62.0695 17.2987 61.4926 17.2987Z" fill="#212529"/>
</svg>
